<!DOCTYPE svg PUBLIC "-//W3C//DTD SVG 1.1//EN" "http://www.w3.org/Graphics/SVG/1.1/DTD/svg11.dtd">
<!-- Uploaded to: SVG Repo, www.svgrepo.com, Transformed by: SVG Repo Mixer Tools -->
<svg fill="#d3d3d3" height="64px" width="64px" version="1.1" id="Layer_1" xmlns="http://www.w3.org/2000/svg" xmlns:xlink="http://www.w3.org/1999/xlink" viewBox="-1792 -1792 5376.00 5376.00" xml:space="preserve" stroke="#d3d3d3" stroke-width="32.256" transform="rotate(0)">
<g id="SVGRepo_bgCarrier" stroke-width="0"/>
<g id="SVGRepo_tracerCarrier" stroke-linecap="round" stroke-linejoin="round" stroke="#CCCCCC" stroke-width="7.168000000000001"/>
<g id="SVGRepo_iconCarrier"> <title>fiction</title> <path d="M118.4,427.9L118.4,427.9c0-52.3,42.4-94.3,94.3-94.3h1366.8c52.3,0,94.3,42.4,94.3,94.3l0,0c0,52.3-42.4,94.3-94.3,94.3 H212.7C160.8,522.6,118.4,480.2,118.4,427.9z"/> <path d="M118.4,895.5L118.4,895.5c0-52.3,42.4-94.3,94.3-94.3h920.6c52.3,0,94.3,42.4,94.3,94.3l0,0c0,52.3-42.4,94.3-94.3,94.3 H212.7C160.8,990.3,118.4,947.9,118.4,895.5z"/> <path d="M118.4,1363.2L118.4,1363.2c0-52.3,42.4-94.3,94.3-94.3h1366.8c52.3,0,94.3,42.4,94.3,94.3l0,0c0,52.3-42.4,94.3-94.3,94.3 H212.7C160.8,1457.9,118.4,1415.5,118.4,1363.2z"/> </g>
</svg>